<svg width="26" height="25" viewBox="0 0 26 25" fill="none" xmlns="http://www.w3.org/2000/svg">
<path d="M23.1667 18.5417C23.8076 18.5417 24.4223 18.2871 24.8755 17.8339C25.3287 17.3807 25.5833 16.766 25.5833 16.1251V2.83341C25.5833 2.19247 25.3287 1.57779 24.8755 1.12457C24.4223 0.67136 23.8076 0.416748 23.1667 0.416748H10.4308C10.8538 1.15383 11.0833 1.98758 11.0833 2.83341H23.1667V16.1251H12.2917V18.5417M17.125 6.45841V8.87508H9.875V24.5834H7.45833V17.3334H5.04167V24.5834H2.625V14.9167H0.8125V8.87508C0.8125 8.23414 1.06711 7.61945 1.52033 7.16624C1.97354 6.71303 2.58823 6.45841 3.22917 6.45841H17.125ZM8.66667 2.83341C8.66667 3.47435 8.41205 4.08904 7.95884 4.54226C7.50563 4.99547 6.89094 5.25008 6.25 5.25008C5.60906 5.25008 4.99437 4.99547 4.54116 4.54226C4.08795 4.08904 3.83333 3.47435 3.83333 2.83341C3.83333 2.19247 4.08795 1.57779 4.54116 1.12457C4.99437 0.67136 5.60906 0.416748 6.25 0.416748C6.89094 0.416748 7.50563 0.67136 7.95884 1.12457C8.41205 1.57779 8.66667 2.19247 8.66667 2.83341Z" fill="white"/>
</svg>
