<svg width="21" height="22" viewBox="0 0 21 22" fill="none" xmlns="http://www.w3.org/2000/svg">
<path d="M3.24992 18.9584H6.87492V12.9167C6.87492 12.5744 6.99092 12.2876 7.22292 12.0564C7.45492 11.8252 7.7417 11.7092 8.08325 11.7084H12.9166C13.2589 11.7084 13.5461 11.8244 13.7781 12.0564C14.0101 12.2884 14.1257 12.5752 14.1249 12.9167V18.9584H17.7499V8.08342L10.4999 2.64591L3.24992 8.08342V18.9584ZM0.833252 18.9584V8.08342C0.833252 7.70078 0.919043 7.33828 1.09063 6.99592C1.26221 6.65355 1.49864 6.37161 1.79992 6.15008L9.04992 0.712582C9.47284 0.390359 9.95617 0.229248 10.4999 0.229248C11.0437 0.229248 11.527 0.390359 11.9499 0.712582L19.1999 6.15008C19.502 6.37161 19.7388 6.65355 19.9104 6.99592C20.082 7.33828 20.1674 7.70078 20.1666 8.08342V18.9584C20.1666 19.623 19.9298 20.1921 19.4561 20.6658C18.9824 21.1395 18.4137 21.3759 17.7499 21.3751H12.9166C12.5742 21.3751 12.2874 21.2591 12.0563 21.0271C11.8251 20.7951 11.7091 20.5083 11.7083 20.1667V14.1251H9.29159V20.1667C9.29159 20.5091 9.17559 20.7963 8.94359 21.0283C8.71159 21.2603 8.42481 21.3759 8.08325 21.3751H3.24992C2.58534 21.3751 2.01661 21.1387 1.54375 20.6658C1.07089 20.1929 0.834058 19.6238 0.833252 18.9584Z" fill="white"/>
</svg>
