<svg width="27" height="28" viewBox="0 0 27 28" fill="none" xmlns="http://www.w3.org/2000/svg">
<path d="M3.53133 0.90625H1.71883L7.15633 10.875C7.75672 11.9455 17.0458 11.6736 17.1251 10.875L3.53133 0.90625ZM24.8848 11.3791L24.8792 20.3283H26.5841L26.5897 11.3791H24.8848ZM0.415527 11.3904V20.3396L2.11475 20.334V11.3904H0.415527ZM3.13484 12.3193V13.3445C10.2546 14.0525 16.7569 14.0525 23.8653 13.3502V12.3307C16.7399 13.0387 10.2659 13.0387 3.13484 12.3193ZM3.13484 15.0438V16.0689C10.2432 16.777 16.7513 16.7713 23.8653 16.0689V15.0438C16.7399 15.7574 10.2659 15.7574 3.13484 15.0438ZM23.8653 17.7285C16.7116 18.4705 10.2376 18.4818 3.13484 17.7965V18.8273C10.2206 19.507 16.7343 19.4787 23.8653 18.7537V17.7285ZM0.416094 21.3535V27.584L26.5841 27.5896L26.5897 21.3535H0.416094Z" fill="white"/>
</svg>
