<svg width="17" height="27" viewBox="0 0 17 27" fill="none" xmlns="http://www.w3.org/2000/svg">
<path d="M15.75 20.1459C10.9167 21.757 6.08333 21.757 1.25 20.1459M15.75 11.6876C10.9167 10.0765 6.08333 10.0765 1.25 11.6876M13.3333 6.85425L10.3065 3.44916C9.46425 2.50062 9.04254 2.02696 8.5 2.02696C7.95746 2.02696 7.53575 2.50062 6.69354 3.44916L3.66667 6.85425M15.75 1.41675H1.25" stroke="white" stroke-width="1.5" stroke-linecap="round" stroke-linejoin="round"/>
<path d="M5.00913 25.3031C7.33638 25.6776 9.66363 25.6776 11.9909 25.3031C15.1664 24.7931 15.75 23.7322 15.75 21.1029V10.7306C15.75 8.10123 15.1664 7.04031 11.9909 6.53039C9.67864 6.15654 7.32136 6.15654 5.00913 6.53039C1.83363 7.04031 1.25 8.10123 1.25 10.7306V21.1029C1.25 23.7322 1.83363 24.7931 5.00913 25.3031Z" stroke="white" stroke-width="1.5" stroke-linecap="round" stroke-linejoin="round"/>
</svg>
